<svg xmlns="http://www.w3.org/2000/svg" width="16" height="16" viewBox="0 0 16 16" fill="none">
  <path fill-rule="evenodd" clip-rule="evenodd" d="M2.97529 8.00245C3.25008 7.97516 3.49496 8.17581 3.52224 8.4506C3.74796 10.7241 5.66689 12.5 8 12.5C10.3331 12.5 12.252 10.7241 12.4778 8.4506C12.5051 8.17581 12.7499 7.97516 13.0247 8.00245C13.2995 8.02973 13.5001 8.27461 13.4729 8.5494C13.2132 11.165 11.1221 13.2413 8.5 13.4776V15H10.5C10.7761 15 11 15.2239 11 15.5C11 15.7761 10.7761 16 10.5 16H5.5C5.22386 16 5 15.7761 5 15.5C5 15.2239 5.22386 15 5.5 15H7.5V13.4776C4.87788 13.2413 2.78683 11.165 2.52713 8.5494C2.49984 8.27461 2.7005 8.02973 2.97529 8.00245Z" fill="#ffffffff"/>
  <!-- Eblusha accent -->
  <path d="M5 3C5 1.34315 6.34314 0 8 0C9.65685 0 11 1.34315 11 3V8C11 9.65685 9.65685 11 8 11C6.34314 11 5 9.65685 5 8V3Z" fill="#d97706"/>
</svg>
