<svg xmlns="http://www.w3.org/2000/svg" width="20" height="16" viewBox="0 0 20 16" fill="none">
  <g>
    <!-- Eblusha accent -->
    <path d="M7.28033 4.21967C6.98744 3.92678 6.51256 3.92678 6.21967 4.21967C5.92678 4.51256 5.92678 4.98744 6.21967 5.28033L8.93934 8L6.21967 10.7197C5.92678 11.0126 5.92678 11.4874 6.21967 11.7803C6.51256 12.0732 6.98744 12.0732 7.28033 11.7803L10 9.06066L12.7197 11.7803C13.0126 12.0732 13.4874 12.0732 13.7803 11.7803C14.0732 11.4874 14.0732 11.0126 13.7803 10.7197L11.0607 8L13.7803 5.28033C14.0732 4.98744 14.0732 4.51256 13.7803 4.21967C13.4874 3.92678 13.0126 3.92678 12.7197 4.21967L10 6.93934L7.28033 4.21967Z" fill="#d97706"/>
    <path fill-rule="evenodd" clip-rule="evenodd" d="M2.75 0C1.23122 0 0 1.23122 0 2.75V13.25C0 14.7688 1.23122 16 2.75 16H17.25C18.7688 16 20 14.7688 20 13.25V2.75C20 1.23122 18.7688 0 17.25 0H2.75ZM1.5 2.75C1.5 2.05964 2.05964 1.5 2.75 1.5H17.25C17.9404 1.5 18.5 2.05964 18.5 2.75V13.25C18.5 13.9404 17.9404 14.5 17.25 14.5H2.75C2.05964 14.5 1.5 13.9404 1.5 13.25V2.75Z" fill="#ffffffff"/>
  </g>
</svg>
